Patient4_TMGait_0pt7_01_left_50_EMG.mot
version=1
nRows=34
nColumns=33
inDegrees=no
endheader
time	1LAddLong	2LGlutMax	3LGlutMed	4LIliopsoas	5LSemiMemb	6LBicFemLong	7LRecFem	8LVastMed	9LVastLat	10LGasMed	11LTibAnt	12lTibPost	13LPeroneusLong	14LSol	15LExtDigLong	16LFlexDigLong	17RAddLong	18RGlutMax	19RGlutMed	20RIliopsoas	21RSemiMemb	22RBicFemLong	23RRecFem	24RVastMed	25RVastLat	26RGasMed	27RTibAnt	28RTibPost	29RPeroneusLong	30RSol	31RExtDigLong	32RFlexDigLong
58.905	0.015869	-0.20721	-0.15503	0.010986	0.056305	-0.035248	0.58227	0.008087	-0.095215	0.24567	0.007935	0.011749	0.027161	-0.33585	0.025482	0.21866	-0.062714	0.11063	0.82504	0.03479	0.16495	0.12497	-0.24597	-0.047607	0.34576	-0.001678	0.015106	0.014496	0.27161	0.068359	0.001984	-0.016479
58.906	0.013275	-0.18219	-0.16754	0.008087	0.038147	0.062866	0.5545	0.010071	-0.09613	-0.40039	0.039825	0.033569	0.12772	-0.30777	0.026855	0.11383	0.010376	-0.046692	0.82809	-0.040894	0.43167	0.015869	-0.066223	-0.003662	0.48004	-0.006866	0.043793	0.014038	-0.14893	0.043793	-0.003052	-0.013885
58.907	0.017548	-0.20386	-0.16663	0.002289	0.007629	0.1181	0.51895	0.014191	-0.094299	-0.4686	0.049896	0.046997	0.057678	0.041046	-0.006714	-0.62012	0.12817	-0.1268	0.93918	-0.07309	0.37445	0.02121	0.09201	-0.18158	0.36087	-0.009766	0.046387	-0.001221	-0.47455	-0.037994	-0.002441	-0.002747
58.908	0.011444	-0.18524	-0.23361	0.001831	-0.028534	0.10788	0.50491	0.011749	-0.10178	-0.2652	0.051117	0.056305	-0.025024	0.13504	-0.031128	0.30655	0.21835	-0.096283	0.97931	-0.008392	0.084229	-0.12634	0.10834	-0.53863	0.15335	-0.009613	0.000763	-0.005493	-0.47394	-0.20172	-0.001678	-0.005188
58.909	0.007935	-0.15579	-0.29144	-0.002441	-0.030365	0.049744	0.46417	0.020599	-0.10361	-0.30914	0.027618	0.025482	-0.022736	0.19302	-0.041504	-0.066223	0.24948	-0.16281	1.2234	-0.000305	-0.21774	-0.32166	0.17975	-0.74432	0.18738	-0.008545	-0.007782	0.000305	0.34378	-0.14633	-0.002747	0.001373
58.91	0.005188	-0.13687	-0.32242	0.020599	0.019989	0.029297	0.38238	0.019226	-0.11093	-0.13611	0.025635	0.024414	-0.031891	0.21576	-0.059204	-0.078278	0.19699	-0.18524	1.2149	-0.094452	-0.49439	-0.16937	-0.000305	-0.96329	0.031891	-0.012817	-0.020142	0.007782	0.8226	-0.044556	0.003357	-0.002899
58.911	0.010376	-0.12116	-0.32684	0.020752	0.034027	-0.02121	0.34958	0.013733	-0.10407	-0.011597	0.038452	-0.042725	-0.065765	0.059204	-0.062408	0.24399	0.096283	-0.32028	0.85159	-0.075531	-0.24719	0.11383	-0.19272	-0.92697	-0.053101	-0.012817	0.013885	0.005341	0.40176	-0.02533	-0.003662	0.000305
58.912	0.005798	-0.19134	-0.33615	0.004272	0.009766	-0.023346	0.30807	0.010529	-0.095978	0.020752	0.034637	-0.031281	-0.052948	0.035553	-0.047913	-0.001221	-0.040894	-0.33478	0.52017	0.10941	0.6929	0.29907	-0.31021	-0.63644	-0.21912	-0.016785	0.026703	0.007477	0.17944	-0.011139	0.001068	-0.001678
58.913	0.016479	-0.16693	-0.3447	0.020752	0.010376	0.029449	0.2504	0.006561	-0.11047	0.039215	0.022736	-0.009155	-0.040131	0.17441	-0.032043	-0.047455	-0.18082	-0.29831	0.31632	0.12116	0.77179	0.5246	-0.42816	-0.21057	-0.26489	-0.012054	0.005798	0.012207	0.18768	-0.039063	0.003662	-0.002899
58.914	0.011902	-0.17425	-0.34042	0.015717	0.04303	0.13412	0.2121	0.005951	-0.10056	0.026093	0.033264	-0.018311	-0.031433	0.27618	-0.029297	-0.040436	-0.18906	-0.24094	0.36591	-0.088348	0.44723	0.71106	-0.29739	-0.071106	0.00351	-0.009613	0.013275	0.011597	0.20813	-0.055237	-0.001678	-0.007935
58.915	0.014954	-0.20355	-0.31708	0.023193	0.047607	0.10773	0.15686	0.013123	-0.10498	-0.020447	0.028381	-0.001526	-0.024261	0.23285	-0.010223	-0.0383	-0.17105	-0.14633	0.61539	-0.19913	0.47684	0.84167	-0.13336	-0.028229	0.55634	-0.002747	0.032043	0.008545	0.12283	-0.060425	-0.004883	-0.012665
58.916	0.012054	-0.25162	-0.29419	0.010986	-0.001831	0.046234	0.14801	0.011597	-0.10529	-0.055847	0.030518	-0.013428	-0.046844	0.14618	0.010376	-0.027924	-0.14267	0.044708	1.2038	-0.11704	0.61157	0.87738	-0.13809	-0.086212	0.67795	-0.008392	0.024567	0.018005	0.054932	-0.042419	-0.002289	-0.005493
58.917	0.001526	-0.24384	-0.33112	-0.010681	-0.066223	0.010681	0.13977	0.020752	-0.10681	-0.053101	0.032043	0.001984	-0.039368	0.10895	0.023499	-0.031281	-0.10284	0.062714	0.90668	0.048218	0.68131	0.83267	-0.3952	-0.067902	0.57342	-0.013885	0.020294	0.010681	0.007782	-0.053406	-0.002899	-0.011902
58.918	0.003052	-0.26321	-0.35873	-0.004272	-0.076141	-0.019226	0.10956	0.019379	-0.10132	-0.056305	0.032196	0.014038	-0.051727	0.10956	0.041504	-0.03067	-0.10193	-0.005188	0.39215	0.17563	0.6192	0.59006	-0.26825	-0.10803	0.21378	-0.019226	0.00473	0.012665	-0.002594	-0.0354	-0.002289	-0.010681
58.919	0.020447	-0.23407	-0.3566	-0.000153	0.002747	-0.019379	0.052185	0.011749	-0.081177	-0.059662	0.013275	0.009766	-0.04425	0.15427	0.037689	-0.020142	-0.062408	-0.14328	0.60333	0.2121	0.61493	0.5983	0.06485	-0.12146	-0.075531	-0.023956	0.006714	0.014343	0.013428	-0.044556	-0.001678	-0.007019
58.92	0.009766	-0.23727	-0.33554	-0.013428	0.083313	0.12207	0.054016	0.014038	-0.088348	-0.056305	0.004425	0.007172	-0.032501	0.16739	0.016327	0.009308	0.001678	-0.37018	1.0452	0.21271	0.57693	0.75577	0.082092	-0.074463	0.25269	-0.023041	0.082092	0.00885	-0.003815	-0.070496	-0.003662	-0.002747
58.921	0.003204	-0.2269	-0.35141	-0.016022	0.068359	0.10605	0.031281	0.010986	-0.11093	-0.065155	-0.00473	0.015869	-0.067139	0.14496	0.016327	-0.006866	0.010834	-0.63294	0.49393	0.084381	0.52429	0.82657	-0.19531	-0.10864	-0.23544	-0.025024	0.12711	0.005646	0.080414	-0.055847	-0.002441	-0.002747
58.922	-0.001221	-0.19867	-0.35477	-0.001068	0.037537	-0.013275	0.017242	0.015564	-0.086975	-0.087891	0.016937	0.023651	-0.11017	0.15198	0.015717	-0.013428	0.007935	-0.52124	0.14771	-0.005493	0.46555	0.88287	-0.29297	-0.007935	-0.93628	-0.014954	0.1471	0.00351	0.21805	-0.036163	-0.00061	-0.001526
58.923	0.005188	-0.15961	-0.37994	0.009613	0.005341	-0.00824	0.00061	0.011597	-0.070801	-0.055847	0.011444	0.014801	-0.12421	0.15701	0.010071	-0.003967	0.025635	-0.36209	0.29862	-0.061646	0.43625	1.0886	-0.32638	0.028839	-1.3614	0.022736	0.103	0.009613	0.45166	-0.02121	-0.000916	-0.002136
58.924	0.009613	-0.15274	-0.383	-0.000763	-0.005951	-0.003357	-0.032501	0.01236	-0.06485	0.029297	0.018005	0.022278	-0.15427	0.14069	0.014954	-0.005951	0.042419	-0.35248	0.29968	-0.042267	0.47257	1.4052	-0.11398	0.24857	-1.2837	0.017853	-0.16602	0.012817	0.31311	-0.061798	0.00061	-0.000916
58.925	0.007629	-0.18799	-0.35202	0.015259	0.006104	-0.040894	-0.04364	0.009613	-0.075378	0.16205	0.004272	0.039978	-0.058441	0.15686	0.018158	0.007935	0.036621	-0.50949	0.29419	0.027466	0.74341	1.5179	-0.039978	0.40482	-0.84106	0.011749	-0.15091	0.020599	-0.41733	-0.068665	-0.001678	0.002289
58.926	0.014038	-0.15884	-0.32745	0.028381	0.015259	-0.14404	-0.10147	0.007782	-0.072632	0.4097	0.002594	0.062408	0.006409	0.1001	0.012817	0.010376	-0.046082	-0.57098	0.38849	0.053864	0.7756	1.5906	-0.057526	0.22705	-0.53635	0.008087	-0.077667	0.018768	-0.39414	-0.081329	0.000305	-0.002441
58.927	0.008698	-0.17349	-0.31616	-0.009613	0.047302	-0.11978	-0.092773	0.012207	-0.078278	0.47211	0.002441	0.055237	-0.020294	0.017395	0.015259	-0.010986	-0.00061	-0.76858	0.58243	0.000305	0.69305	1.4546	-0.093994	-0.13382	-0.3801	-0.041809	-0.017853	0.015564	-0.23285	-0.0737	-0.002289	-0.003052
58.928	0.015869	-0.19318	-0.29434	-0.019531	0.051575	-0.001526	-0.14053	0.018158	-0.079346	0.33814	0.000305	-0.14862	0.082245	0.01297	0.017395	-0.035706	0.039215	-0.82184	0.8786	-0.11841	0.51193	1.2503	-0.27679	0.039825	-0.053558	-0.022888	-0.083008	0.009155	-0.058594	-0.17014	-0.005035	0.006104
58.929	0.016479	-0.18509	-0.289	0.001526	0.03479	0.060577	-0.17914	0.014038	-0.077362	-0.24048	0.008392	0.18219	0.027771	0.10223	0.005646	-0.04303	0.047455	-0.79407	0.38193	-0.2565	0.36591	1.1487	-0.17441	0.23727	0.38925	-0.010071	-0.071259	0.010071	0.30167	-0.27191	-0.007935	0.001221
58.93	0.018005	-0.12497	-0.27756	0.004883	0.041504	0.05661	-0.215	0.012512	-0.062714	-0.15243	0.007172	-0.01236	0.01236	0.050812	0.012512	-0.05188	0.059509	-0.58685	0.050049	-0.25101	0.42999	0.98663	0.11398	0.23086	0.77606	-0.005188	-0.027313	0.005646	0.2095	-0.064697	-0.000916	-0.003967
58.931	0.023956	-0.15411	-0.26474	0.000305	0.03006	-0.008545	-0.22919	0.00946	-0.070038	0.049744	0.004272	0.021973	-0.034332	-0.003815	-0.003052	-0.004425	0.056458	-0.54565	-0.14877	-0.17273	0.42282	0.96985	0.095978	0.000916	1.0515	-0.001831	0.016632	0.002289	0.087585	0.12848	-0.001221	-0.002136
58.932	0.024261	-0.1413	-0.26581	0.009308	0.040894	-0.068207	-0.25681	0.00946	-0.074158	-0.32715	0.010071	0.021362	0.006104	0.006104	-0.025635	0.053101	0.036316	-0.57785	-0.26642	0.030823	0.57785	0.99991	0.17181	-0.22553	0.76111	0	0.22064	0.00351	0.023956	0.15854	-0.000763	-0.002136
58.933	0.018158	-0.078888	-0.26489	0.004425	0.050964	0.000458	-0.25665	0.014191	-0.084686	-0.26382	-0.013885	-0.040131	0.096741	0.08728	-0.047302	0.040894	-0.034485	-0.45975	0.10941	0.15472	0.2211	1.05	0.61325	0.17181	0.38757	0.005341	0.3923	0.007782	-0.027466	0.075073	-0.003052	-0.012665
58.934	0.019531	-0.031281	-0.24338	-0.000916	0.038757	0.033875	-0.26001	0.009766	-0.078735	-0.049744	-0.017853	-0.007172	0.13138	0.10834	-0.027771	0.022736	0.033722	-0.41031	0.32532	0.21316	0.224	0.94345	0.85968	0.27618	-0.068054	-0.005188	0.51834	0.00412	-0.1236	0.012512	-0.001831	-0.005188
58.935	0.026398	0.000763	-0.22324	0.006256	0.022583	0.02182	-0.28488	0.015106	-0.089874	0.075684	-0.022736	0.011749	0.075378	0.13992	0.079803	0.015259	0.058746	-0.48981	0.58548	0.10025	0.30563	0.83725	0.46722	0.49759	-0.50415	-0.010986	0.46524	0.003357	-0.1619	-0.056458	-0.004578	-0.008392
58.936	0.018311	0.031891	-0.21896	-0.004578	0.020294	0.012665	-0.3154	0.013123	-0.066071	0.11231	-0.059814	-0.003204	0.057068	0.24262	0.067444	0.008698	0.1207	-0.39688	-0.22476	0.001984	0.30533	0.71732	0.054321	0.31387	-0.50766	0	0.24841	0.005035	-0.13336	-0.17746	-0.010376	-0.012665
58.937	0.032196	0.098419	-0.20371	-0.003357	0.020447	-0.001831	-0.31586	0.011597	-0.066833	0.083313	-0.047302	0.014648	0.031433	0.054779	0.037079	0.001221	0.17929	-0.1709	-0.74631	0.018005	0.16815	0.5339	-0.42786	0.42679	-0.42084	-0.000305	-0.25116	0.006104	-0.12299	-0.25787	-0.000153	-0.00885
58.938	-0.03067	0.14465	-0.16693	-0.001984	0.005646	0.023041	-0.31418	0.015717	-0.020752	0.12238	0.1355	-0.003967	0.001678	-0.006866	-0.031281	-0.008087	0.12543	-0.10864	0.02655	-0.004425	0.17746	0.44586	-0.63538	0.75073	-0.40009	-0.002747	-0.5072	0.003357	0.078583	-0.26443	0.001678	-0.005798
